Coordinates
version=1
nRows=17
nColumns=24
inDegrees=yes

Units are S.I. units (second, meters, Newtons, ...)
Angles are in degrees.

endheader
time	pelvis_tilt	pelvis_list	pelvis_rotation	pelvis_tx	pelvis_ty	pelvis_tz	hip_flexion_r	hip_adduction_r	hip_rotation_r	knee_angle_r	ankle_angle_r	subtalar_angle_r	mtp_angle_r	hip_flexion_l	hip_adduction_l	hip_rotation_l	knee_angle_l	ankle_angle_l	subtalar_angle_l	mtp_angle_l	lumbar_extension	lumbar_bending	lumbar_rotation
      5.45666670	     -9.46797250	      4.10819705	     -2.78660790	      1.15098403	      0.73919050	     -0.19538104	     35.49493130	    -20.76434825	    -19.70776694	    -86.11355961	     25.66861177	      8.81791397	      0.00000000	      0.25886683	     -7.44936103	     53.49259450	     44.57364897	   -114.04192349	   -146.52067823	      0.00000000	    -17.27950164	     -2.21190298	     -3.37145627
      5.46500000	     -9.40774404	      4.12024248	     -2.76213801	      1.15434928	      0.73924965	     -0.19564643	     36.35800310	    -20.76552829	    -19.44732300	    -85.85402869	     26.70076568	      8.45557252	      0.00000000	     -0.11542772	     -7.42804813	     53.51175723	     44.67332080	   -113.87975012	   -146.70406823	      0.00000000	    -17.42248823	     -2.16806717	     -3.66634751
      5.47333330	     -9.35220774	      4.13027427	     -2.73636794	      1.15769718	      0.73931614	     -0.19589313	     37.19259559	    -20.75517846	    -19.26786011	    -85.45373014	     27.73284995	      8.07185474	      0.00000000	     -0.49085817	     -7.39766367	     53.49755646	     44.76033669	   -113.72738342	   -146.91499620	      0.00000000	    -17.55931832	     -2.11762051	     -3.95655696
      5.48166670	     -9.29907719	      4.14088898	     -2.70799288	      1.16103294	      0.73939080	     -0.19613566	     37.99388901	    -20.74068262	    -19.16589194	    -84.91921751	     28.74687657	      7.68329713	      0.00000000	     -0.86688150	     -7.35768057	     53.46401272	     44.83690500	   -113.59373770	   -147.14173516	      0.00000000	    -17.69126953	     -2.05999612	     -4.24352213
      5.49000000	     -9.25080748	      4.14698030	     -2.67899744	      1.16436959	      0.73949529	     -0.19634758	     38.75700318	    -20.72243558	    -19.16159600	    -84.25555744	     29.69552299	      7.27547024	      0.00000000	     -1.27978116	     -7.25936702	     53.24114326	     44.87088925	   -113.43677539	   -147.62172315	      0.00000000	    -17.81549268	     -1.99518246	     -4.52878229
      5.49833330	     -9.21462602	      4.15085393	     -2.65623556	      1.16767432	      0.73956448	     -0.19652675	     39.50516987	    -20.67949299	    -19.20758721	    -83.48074534	     30.60935430	      6.83389098	      0.00000000	     -1.64196618	     -7.22511768	     53.18646069	     44.93225521	   -113.38591637	   -147.82521035	      0.00000000	    -17.92405241	     -1.92526358	     -4.78636686
      5.50666670	     -9.16880151	      4.16641280	     -2.62601766	      1.17100292	      0.73966545	     -0.19671729	     40.20272887	    -20.66291879	    -19.33396806	    -82.60961142	     31.44729876	      6.45122303	      0.00000000	     -2.05295808	     -7.11259485	     52.96000453	     44.95094212	   -113.33346652	   -148.33406769	      0.00000000	    -18.04017211	     -1.86291617	     -5.06343955
      5.51500000	     -9.12919974	      4.16338570	     -2.59655197	      1.17431347	      0.73974248	     -0.19684200	     40.85869413	    -20.61166628	    -19.54034180	    -81.63331793	     32.23153091	      6.04539620	      0.00000000	     -2.43031774	     -7.08536348	     52.88388173	     45.01772375	   -113.29285503	   -148.52485341	      0.00000000	    -18.14677957	     -1.78136947	     -5.31279148
      5.52333330	     -9.10883805	      4.14584197	     -2.56624852	      1.17761058	      0.73981843	     -0.19693534	     41.48726297	    -20.54694606	    -19.83835513	    -80.56652484	     32.89337400	      5.63991297	      0.00000000	     -2.80867255	     -7.03076028	     52.68431051	     45.04894832	   -113.22302530	   -148.90859524	      0.00000000	    -18.23042923	     -1.68120494	     -5.55176898
      5.53166670	     -9.07389572	      4.18054603	     -2.54493140	      1.18094734	      0.73989698	     -0.19705840	     42.08277647	    -20.55285612	    -20.17979911	    -79.45250420	     33.49938107	      5.35519371	      0.00000000	     -3.21844422	     -6.87972456	     52.40617000	     45.03550103	   -113.27789539	   -149.48758852	      0.00000000	    -18.32194227	     -1.63432699	     -5.79572072
      5.54000000	     -9.04483059	      4.17562354	     -2.51503162	      1.18428189	      0.73995638	     -0.19711527	     42.61965978	    -20.51690835	    -20.62777222	    -78.26016425	     34.01006477	      5.09207870	      0.00000000	     -3.61481098	     -6.81443399	     52.20367040	     45.06639241	   -113.31143337	   -149.87712556	      0.00000000	    -18.40488394	     -1.54511832	     -6.02371526
      5.54833330	     -9.01690837	      4.17485651	     -2.48482921	      1.18762897	      0.74000514	     -0.19715443	     43.11598147	    -20.49475139	    -21.15455514	    -77.01931986	     34.42725363	      4.92227634	      0.00000000	     -4.01351542	     -6.73898987	     51.98525253	     45.09231913	   -113.32343341	   -150.28316643	      0.00000000	    -18.48192835	     -1.45821739	     -6.24372561
      5.55666670	     -8.99368454	      4.17652059	     -2.45308496	      1.19098725	      0.74002618	     -0.19717304	     43.57644496	    -20.48794801	    -21.76494656	    -75.74315221	     34.75482446	      4.85029981	      0.00000000	     -4.41045374	     -6.66346983	     51.76382451	     45.12148814	   -113.35192075	   -150.69667716	      0.00000000	    -18.54921805	     -1.37266604	     -6.45749886
      5.56500000	     -8.98277090	      4.16725117	     -2.42022864	      1.19434343	      0.74000558	     -0.19715230	     44.00702691	    -20.47972511	    -22.46726643	    -74.44053521	     34.97732556	      4.88799409	      0.00000000	     -4.79565032	     -6.61694206	     51.55962293	     45.17222443	   -113.36336082	   -151.02890266	      0.00000000	    -18.59861954	     -1.27550240	     -6.65709387
      5.57333330	     -8.96901833	      4.17842138	     -2.38717380	      1.19772365	      0.73997046	     -0.19713397	     44.40155767	    -20.49702644	    -23.22600765	    -73.11810588	     35.13895240	      5.05063975	      0.00000000	     -5.18357268	     -6.53572092	     51.34215362	     45.20191668	   -113.39399600	   -151.43497566	      0.00000000	    -18.64641218	     -1.19759318	     -6.85554923
      5.58166670	     -8.95317327	      4.19253200	     -2.35293621	      1.20112367	      0.73991099	     -0.19709591	     44.75540221	    -20.51995974	    -24.05420687	    -71.78211431	     35.23403204	      5.33164868	      0.00000000	     -5.57499181	     -6.45779984	     51.13308068	     45.23696746	   -113.44029187	   -151.82095563	      0.00000000	    -18.69086521	     -1.12209138	     -7.04588195
      5.59000000	     -8.94307528	      4.20693942	     -2.31645306	      1.20453649	      0.73981569	     -0.19703635	     45.07651351	    -20.54567862	    -24.95207324	    -70.43709820	     35.26476705	      5.73173953	      0.00000000	     -5.95991425	     -6.38935744	     50.94029725	     45.28115262	   -113.47319312	   -152.17384106	      0.00000000	    -18.72566023	     -1.04488890	     -7.22661598
